<svg width="16" height="16" viewBox="0 0 16 16" fill="none" xmlns="http://www.w3.org/2000/svg">
<path d="M13.3329 7.83339H2.66625C2.51291 7.83339 2.37291 7.76672 2.27958 7.64672C2.18625 7.53339 2.14625 7.37339 2.17958 7.22672L2.93291 3.62672C3.17958 2.46005 3.67958 1.38672 5.65958 1.38672H10.3462C12.3262 1.38672 12.8262 2.46672 13.0729 3.62672L13.8262 7.23339C13.8596 7.38005 13.8196 7.53339 13.7262 7.65339C13.6262 7.76672 13.4862 7.83339 13.3329 7.83339ZM3.27958 6.83339H12.7129L12.0862 3.83339C11.8996 2.96005 11.6796 2.38672 10.3396 2.38672H5.65958C4.31958 2.38672 4.09958 2.96005 3.91291 3.83339L3.27958 6.83339Z" fill="#3C3B3B"/>
<path d="M13.3064 15.1668H12.0531C10.9731 15.1668 10.7664 14.5468 10.6331 14.1402L10.4997 13.7402C10.3264 13.2335 10.3064 13.1668 9.7064 13.1668H6.29306C5.69306 13.1668 5.65306 13.2802 5.49973 13.7402L5.3664 14.1402C5.2264 14.5535 5.0264 15.1668 3.9464 15.1668H2.69306C2.1664 15.1668 1.65973 14.9468 1.3064 14.5602C0.959732 14.1802 0.793065 13.6735 0.839732 13.1668L1.21307 9.10683C1.31307 8.00683 1.6064 6.8335 3.7464 6.8335H12.2531C14.3931 6.8335 14.6797 8.00683 14.7864 9.10683L15.1597 13.1668C15.2064 13.6735 15.0397 14.1802 14.6931 14.5602C14.3397 14.9468 13.8331 15.1668 13.3064 15.1668ZM6.29306 12.1668H9.7064C10.9197 12.1668 11.2064 12.7068 11.4464 13.4135L11.5864 13.8268C11.6997 14.1668 11.6997 14.1735 12.0597 14.1735H13.3131C13.5597 14.1735 13.7931 14.0735 13.9597 13.8935C14.1197 13.7202 14.1931 13.5002 14.1731 13.2668L13.7997 9.20683C13.7131 8.30683 13.6064 7.84016 12.2664 7.84016H3.7464C2.39973 7.84016 2.29306 8.30683 2.21306 9.20683L1.83973 13.2668C1.81973 13.5002 1.89306 13.7202 2.05306 13.8935C2.21306 14.0735 2.45307 14.1735 2.69973 14.1735H3.95306C4.31306 14.1735 4.31306 14.1668 4.4264 13.8335L4.55973 13.4268C4.7264 12.8935 4.97306 12.1668 6.29306 12.1668Z" fill="#3C3B3B"/>
<path d="M2.66667 5.8335H2C1.72667 5.8335 1.5 5.60683 1.5 5.3335C1.5 5.06016 1.72667 4.8335 2 4.8335H2.66667C2.94 4.8335 3.16667 5.06016 3.16667 5.3335C3.16667 5.60683 2.94 5.8335 2.66667 5.8335Z" fill="#3C3B3B"/>
<path d="M13.9997 5.8335H13.333C13.0597 5.8335 12.833 5.60683 12.833 5.3335C12.833 5.06016 13.0597 4.8335 13.333 4.8335H13.9997C14.273 4.8335 14.4997 5.06016 14.4997 5.3335C14.4997 5.60683 14.273 5.8335 13.9997 5.8335Z" fill="#3C3B3B"/>
<path d="M8 3.83333C7.72667 3.83333 7.5 3.60667 7.5 3.33333V2C7.5 1.72667 7.72667 1.5 8 1.5C8.27333 1.5 8.5 1.72667 8.5 2V3.33333C8.5 3.60667 8.27333 3.83333 8 3.83333Z" fill="#3C3B3B"/>
<path d="M9 3.8335H7C6.72667 3.8335 6.5 3.60683 6.5 3.3335C6.5 3.06016 6.72667 2.8335 7 2.8335H9C9.27333 2.8335 9.5 3.06016 9.5 3.3335C9.5 3.60683 9.27333 3.8335 9 3.8335Z" fill="#3C3B3B"/>
<path d="M6 10.5H4C3.72667 10.5 3.5 10.2733 3.5 10C3.5 9.72667 3.72667 9.5 4 9.5H6C6.27333 9.5 6.5 9.72667 6.5 10C6.5 10.2733 6.27333 10.5 6 10.5Z" fill="#3C3B3B"/>
<path d="M12 10.5H10C9.72667 10.5 9.5 10.2733 9.5 10C9.5 9.72667 9.72667 9.5 10 9.5H12C12.2733 9.5 12.5 9.72667 12.5 10C12.5 10.2733 12.2733 10.5 12 10.5Z" fill="#3C3B3B"/>
</svg>
