<svg width="16" height="16" viewBox="0 0 16 16" fill="none" xmlns="http://www.w3.org/2000/svg">
<path d="M14 4.66699V8.00033M2 4.66699V11.441C2 12.363 3.29733 12.911 5.89133 14.0063C6.93333 14.447 7.45467 14.667 8 14.667V7.57033M10 12.667C10 12.667 10.5833 12.667 11.1667 14.0003C11.1667 14.0003 13.02 10.667 14.6667 10.0003" stroke="#00B227" stroke-width="1.2" stroke-linecap="round" stroke-linejoin="round"/>
<path d="M4 8.00016L5.33333 8.66683M11.3333 2.66683L4.66667 6.00016M5.55067 6.46083L3.60333 5.51883C2.53467 5.0015 2 4.74283 2 4.3335C2 3.92416 2.53467 3.6655 3.60333 3.14816L5.55 2.20616C6.75333 1.62416 7.35333 1.3335 8 1.3335C8.64667 1.3335 9.24733 1.62416 10.4493 2.20616L12.3967 3.14816C13.4653 3.6655 14 3.92416 14 4.3335C14 4.74283 13.4653 5.0015 12.3967 5.51883L10.45 6.46083C9.24667 7.04283 8.64667 7.3335 8 7.3335C7.35333 7.3335 6.75267 7.04283 5.55067 6.46083Z" stroke="#00B227" stroke-width="1.2" stroke-linecap="round" stroke-linejoin="round"/>
</svg>
