<svg width="16" height="16" viewBox="0 0 16 16" fill="none" xmlns="http://www.w3.org/2000/svg">
<path d="M11.8267 15.1665H4.17334C2.51334 15.1665 1.16667 13.8198 1.16667 12.1598V7.67318C1.16667 6.01318 2.51334 4.6665 4.17334 4.6665H11.8267C13.4867 4.6665 14.8333 6.01318 14.8333 7.67318V8.63318C14.8333 8.90651 14.6067 9.13318 14.3333 9.13318H12.9867C12.7533 9.13318 12.54 9.21984 12.3867 9.37984L12.38 9.38652C12.1933 9.56652 12.1067 9.81315 12.1267 10.0665C12.1667 10.5065 12.5867 10.8598 13.0667 10.8598H14.3333C14.6067 10.8598 14.8333 11.0865 14.8333 11.3598V12.1532C14.8333 13.8198 13.4867 15.1665 11.8267 15.1665ZM4.17334 5.6665C3.06667 5.6665 2.16667 6.56651 2.16667 7.67318V12.1598C2.16667 13.2665 3.06667 14.1665 4.17334 14.1665H11.8267C12.9333 14.1665 13.8333 13.2665 13.8333 12.1598V11.8665H13.0667C12.06 11.8665 11.2067 11.1198 11.1267 10.1598C11.0733 9.61316 11.2733 9.07318 11.6733 8.67985C12.02 8.32652 12.4867 8.13318 12.9867 8.13318H13.8333V7.67318C13.8333 6.56651 12.9333 5.6665 11.8267 5.6665H4.17334Z" fill="#333333"/>
<path d="M1.66667 8.7735C1.39334 8.7735 1.16667 8.54683 1.16667 8.2735V5.22687C1.16667 4.23354 1.79334 3.3335 2.72001 2.98017L8.01334 0.980166C8.56001 0.7735 9.16667 0.846865 9.64001 1.1802C10.12 1.51353 10.4 2.05353 10.4 2.63353V5.16685C10.4 5.44019 10.1733 5.66685 9.90001 5.66685C9.62667 5.66685 9.40001 5.44019 9.40001 5.16685V2.63353C9.40001 2.38019 9.28001 2.14685 9.06667 2.00019C8.85334 1.85352 8.60001 1.82018 8.36001 1.91352L3.06667 3.91352C2.52667 4.12018 2.16001 4.64687 2.16001 5.22687V8.2735C2.16667 8.5535 1.94001 8.7735 1.66667 8.7735Z" fill="#333333"/>
<path d="M13.0666 11.8666C12.06 11.8666 11.2066 11.12 11.1266 10.16C11.0733 9.60662 11.2733 9.06663 11.6733 8.6733C12.0133 8.32663 12.48 8.1333 12.98 8.1333H14.3666C15.0266 8.1533 15.5333 8.67327 15.5333 9.31327V10.6866C15.5333 11.3266 15.0266 11.8466 14.3866 11.8666H13.0666ZM14.3533 9.1333H12.9866C12.7533 9.1333 12.54 9.21996 12.3866 9.37996C12.1933 9.56663 12.1 9.81995 12.1266 10.0733C12.1666 10.5133 12.5866 10.8666 13.0666 10.8666H14.3733C14.46 10.8666 14.54 10.7866 14.54 10.6866V9.31327C14.54 9.21327 14.46 9.13997 14.3533 9.1333Z" fill="#333333"/>
<path d="M9.33334 8.5H4.66667C4.39334 8.5 4.16667 8.27333 4.16667 8C4.16667 7.72667 4.39334 7.5 4.66667 7.5H9.33334C9.60667 7.5 9.83334 7.72667 9.83334 8C9.83334 8.27333 9.60667 8.5 9.33334 8.5Z" fill="#333333"/>
</svg>
