<svg width="18" height="16" viewBox="0 0 18 16" fill="none" xmlns="http://www.w3.org/2000/svg">
<path d="M12 0.152381C11.25 0.152381 10.65 0.761905 10.65 1.52381C10.65 2.28571 11.25 2.89524 12 2.89524C12.75 2.89524 13.35 2.28571 13.35 1.52381C13.35 0.761905 12.75 0.152381 12 0.152381ZM9.3 2.3619C8.9475 2.3619 8.625 2.50667 8.4 2.74286L5.625 5.55429C5.3925 5.79048 5.25 6.09524 5.25 6.47619C5.25 6.95619 5.4975 7.36 5.8875 7.59619L8.4 9.14286V12.9524H9.75V8L8.0625 6.74286L9.8025 4.95238L11.1 6.85714H14.25V5.48571H11.85L10.395 2.99429C10.1775 2.61333 9.75 2.3619 9.3 2.3619ZM7.5 1.52381H2.25C1.8375 1.52381 1.5 1.18095 1.5 0.761905C1.5 0.342857 1.8375 0 2.25 0H9.5925C9.435 0.259048 9.3075 0.540952 9.24 0.845714C8.595 0.860952 7.9875 1.10476 7.5 1.52381ZM3.75 8.38095C1.68 8.38095 0 10.0876 0 12.1905C0 14.2933 1.68 16 3.75 16C5.82 16 7.5 14.2933 7.5 12.1905C7.5 10.0876 5.82 8.38095 3.75 8.38095ZM3.75 14.8571C2.3025 14.8571 1.125 13.661 1.125 12.1905C1.125 10.72 2.3025 9.52381 3.75 9.52381C5.1975 9.52381 6.375 10.72 6.375 12.1905C6.375 13.661 5.1975 14.8571 3.75 14.8571ZM14.25 8.38095C12.18 8.38095 10.5 10.0876 10.5 12.1905C10.5 14.2933 12.18 16 14.25 16C16.32 16 18 14.2933 18 12.1905C18 10.0876 16.32 8.38095 14.25 8.38095ZM14.25 14.8571C12.8025 14.8571 11.625 13.661 11.625 12.1905C11.625 10.72 12.8025 9.52381 14.25 9.52381C15.6975 9.52381 16.875 10.72 16.875 12.1905C16.875 13.661 15.6975 14.8571 14.25 14.8571ZM3.99 7.61905H0.75C0.336 7.61905 0 7.27619 0 6.85714C0 6.4381 0.336 6.09524 0.75 6.09524H3.7875C3.7725 6.21714 3.75 6.34667 3.75 6.47619C3.75 6.88 3.84 7.26857 3.99 7.61905ZM4.5 4.57143H1.5C1.0875 4.57143 0.75 4.22857 0.75 3.80952C0.75 3.39048 1.0875 3.04762 1.5 3.04762H5.9775L4.5675 4.47238C4.5375 4.50286 4.5 4.54095 4.5 4.57143Z" fill="#B27A00"/>
</svg>
