<svg width="24" height="24" viewBox="0 0 16 16" fill="none" xmlns="http://www.w3.org/2000/svg">
<path d="M10.355 4.645L7.355 1.645C7.30893 1.60002 7.2546 1.56437 7.195 1.54C7.13301 1.51481 7.06691 1.50125 7 1.5H3C2.60218 1.5 2.22064 1.65804 1.93934 1.93934C1.65804 2.22064 1.5 2.60218 1.5 3V9C1.5 9.39783 1.65804 9.77936 1.93934 10.0607C2.22064 10.342 2.60218 10.5 3 10.5H9C9.39783 10.5 9.77936 10.342 10.0607 10.0607C10.342 9.77936 10.5 9.39783 10.5 9V5C10.5004 4.9342 10.4878 4.86897 10.4629 4.80805C10.438 4.74713 10.4013 4.69172 10.355 4.645ZM4.5 2.5H6.5V3.5H4.5V2.5ZM7.5 9.5H4.5V8C4.5 7.86739 4.55268 7.74022 4.64645 7.64645C4.74022 7.55268 4.86739 7.5 5 7.5H7C7.13261 7.5 7.25979 7.55268 7.35355 7.64645C7.44732 7.74022 7.5 7.86739 7.5 8V9.5ZM9.5 9C9.5 9.13261 9.44732 9.25979 9.35355 9.35355C9.25979 9.44732 9.13261 9.5 9 9.5H8.5V8C8.5 7.60218 8.34197 7.22064 8.06066 6.93934C7.77936 6.65804 7.39783 6.5 7 6.5H5C4.60218 6.5 4.22064 6.65804 3.93934 6.93934C3.65804 7.22064 3.5 7.60218 3.5 8V9.5H3C2.86739 9.5 2.74022 9.44732 2.64645 9.35355C2.55268 9.25979 2.5 9.13261 2.5 9V3C2.5 2.86739 2.55268 2.74022 2.64645 2.64645C2.74022 2.55268 2.86739 2.5 3 2.5H3.5V4C3.5 4.13261 3.55268 4.25979 3.64645 4.35355C3.74022 4.44732 3.86739 4.5 4 4.5H7C7.13261 4.5 7.25979 4.44732 7.35355 4.35355C7.44732 4.25979 7.5 4.13261 7.5 4V3.205L9.5 5.205V9Z" fill="#650E0E"/>
</svg>
