<svg width="16" height="16" viewBox="0 0 16 16" fill="none" xmlns="http://www.w3.org/2000/svg">
<path d="M10.9464 5.30008C12.573 6.92675 12.573 9.56672 10.9464 11.1934C9.31969 12.8201 6.67967 12.8201 5.05301 11.1934C3.42634 9.56672 3.42634 6.92675 5.05301 5.30008C6.67967 3.67341 9.31969 3.67341 10.9464 5.30008Z" stroke="#3C3B3B" stroke-linecap="round" stroke-linejoin="round"/>
<path d="M5.5 14.4266C4.16666 13.8933 2.99999 12.9266 2.22666 11.5866C1.46666 10.2733 1.21333 8.81326 1.39333 7.41992" stroke="#3C3B3B" stroke-linecap="round" stroke-linejoin="round"/>
<path d="M3.90039 2.98657C5.03372 2.09991 6.45372 1.57324 8.00039 1.57324C9.51372 1.57324 10.9071 2.08657 12.0271 2.9399" stroke="#3C3B3B" stroke-linecap="round" stroke-linejoin="round"/>
<path d="M10.5 14.4266C11.8333 13.8933 13 12.9266 13.7733 11.5866C14.5333 10.2733 14.7867 8.81326 14.6067 7.41992" stroke="#3C3B3B" stroke-linecap="round" stroke-linejoin="round"/>
</svg>
